<?xml version="1.0" standalone="no"?><!DOCTYPE svg PUBLIC "-//W3C//DTD SVG 1.1//EN" "http://www.w3.org/Graphics/SVG/1.1/DTD/svg11.dtd"><svg xmlns="http://www.w3.org/2000/svg" width="800" height="800" viewBox="0 0 800 800" style="font-family: &quot;Helvetica Neue&quot;, Helvetica, Arial, sans-serif;"><g class="sankey" transform="translate(150,0)"><g class="groups"/><g class="links"><path class="link" d="M0,359.58999812699005 A197.73440991050055 197.73440991050055 0.5699129516802748 0 0 106.68933314408547,328.33766850119827 L422.23154933466594,126.12378117706204 A199.73440991050055 199.73440991050055 0.5699129516802748 0 1 530,94.55534744334145 L530,96.55534744334145 A197.73440991050055 197.73440991050055 0.5699129516802748 0 0 423.3106668559145,127.80767706913325 L107.76845066533404,330.02156439326944 A199.73440991050055 199.73440991050055 0.5699129516802748 0 1 0,361.58999812699005 Z" style="fill: red; opacity: 0.8;"><title>Wales → Northern Ireland 
370</title></path><path class="link" d="M0,702.9764000749204 A205.6851410176288 205.6851410176288 0.5392031244184405 0 0 105.60951724263091,673.79340381259 L423.36357807460854,483.6662355967295 A207.6851410176288 207.6851410176288 0.5392031244184405 0 1 530,454.1994755572205 L530,456.1994755572205 A205.6851410176288 205.6851410176288 0.5392031244184405 0 0 424.3904827573691,485.38247181955103 L106.63642192539143,675.5096400354114 A207.6851410176288 207.6851410176288 0.5392031244184405 0 1 0,704.9764000749204 Z" style="fill: green; opacity: 0.8;"><title>Northern Ireland → Wales 
410</title></path><path class="link" d="M0,550.0206031091965 A444.7841104953744 444.7841104953744 0.22339393096683224 0 0 98.53768908463641,538.9682401018529 L430.91458017041816,463.4569339952308 A447.25648359895183 447.25648359895183 0.22339393096683224 0 1 530,452.34313541861775 L530,454.81550852219516 A444.7841104953744 444.7841104953744 0.22339393096683224 0 0 431.46231091536356,465.8678715295387 L99.08541982958187,541.3791776361609 A447.25648359895183 447.25648359895183 0.22339393096683224 0 1 0,552.4929762127739 Z" style="fill: blue; opacity: 0.8;"><title>Scotland → Wales 
1.32k</title></path><path class="link" d="M0,360.9365049634763 A431.10096644287324 431.10096644287324 0.23059923988924336 0 0 98.53284312133421,349.5250929467358 L430.7222682485459,271.5351402127879 A434.3600037157708 434.3600037157708 0.23059923988924336 0 1 530,260.03746019853907 L530,263.2964974714366 A431.10096644287324 431.10096644287324 0.23059923988924336 0 0 431.46715687866583,274.7079094881771 L99.27773175145411,352.697862222125 A434.3600037157708 434.3600037157708 0.23059923988924336 0 1 0,364.19554223637385 Z" style="fill: red; opacity: 0.8;"><title>Wales → Scotland 
1.74k</title></path><path class="link" d="M0,546.4056939501779 A159.29673597914888 159.29673597914888 0.8696416307581348 0 0 121.71828581928096,489.87134890675264 L405.5195700380685,153.71912907344782 A162.91164513816744 162.91164513816744 0.8696416307581348 0 1 530,95.90185427982769 L530,99.51676343884623 A159.29673597914888 159.29673597914888 0.8696416307581348 0 0 408.281714180719,156.05110848227147 L124.48042996193149,492.20332831557624 A162.91164513816744 162.91164513816744 0.8696416307581348 0 1 0,550.0206031091964 Z" style="fill: blue; opacity: 0.8;"><title>Scotland → Northern Ireland 
1.93k</title></path><path class="link" d="M0,699.0597490166698 A159.79055805780675 159.79055805780675 0.8491285210722697 0 0 119.95556425855834,644.8328449683571 L406.6417273698053,319.0616239566459 A164.32324208103208 164.32324208103208 0.8491285210722697 0 1 530,263.2964974714366 L530,267.82918149466195 A159.79055805780675 159.79055805780675 0.8491285210722697 0 0 410.04443574144165,322.05608554297453 L123.35827263019472,647.8273065546858 A164.32324208103208 164.32324208103208 0.8491285210722697 0 1 0,703.5924330398951 Z" style="fill: green; opacity: 0.8;"><title>Northern Ireland → Scotland 
2.42k</title></path><path class="link" d="M0,80 A0 0 0 0 0 0,80 L530,80 A0 0 0 0 0 530,80 L530,95.2088406068552 A0 0 0 0 0 530,95.2088406068552 L0,95.2088406068552 A0 0 0 0 0 0,95.2088406068552 Z" style="fill: rgb(255, 204, 0); opacity: 0.8;"><title>England → Northern Ireland 
8.12k</title></path><path class="link" d="M0,704.3603671099457 A0 0 0 0 0 0,704.3603671099457 L530,704.3603671099457 A0 0 0 0 0 530,704.3603671099457 L530,720.0000000000001 A0 0 0 0 0 530,720.0000000000001 L0,720.0000000000001 A0 0 0 0 0 0,720.0000000000001 Z" style="fill: green; opacity: 0.8;"><title>Northern Ireland → England 
8.35k</title></path><path class="link" d="M0,552.4929762127739 A540.0373851806704 540.0373851806704 0.1955769372289824 0 1 104.9468181834832,562.7884027513724 L437.98926956565384,628.7672156854669 A473.47061237677457 473.47061237677457 0.1955769372289824 0 0 530,637.7935943060498 L530,704.3603671099457 A540.0373851806704 540.0373851806704 0.1955769372289824 0 1 425.05318181651677,694.0649405713473 L92.01073043434613,628.0861276372527 A473.47061237677457 473.47061237677457 0.1955769372289824 0 0 0,619.0597490166698 Z" style="fill: blue; opacity: 0.8;"><title>Scotland → England 
35.5k</title></path><path class="link" d="M0,95.2088406068552 A552.681630113096 552.681630113096 0.19333704086567827 0 1 106.18938861794385,105.50610699859872 L439.28144141172976,170.71971529103763 A472.16093335340327 472.16093335340327 0.19333704086567827 0 0 530,179.51676343884623 L530,260.03746019853907 A552.681630113096 552.681630113096 0.19333704086567827 0 1 423.81061138205615,249.7401938067955 L90.71855858827027,184.5265855143566 A472.16093335340327 472.16093335340327 0.19333704086567827 0 0 0,175.72953736654804 Z" style="fill: rgb(255, 204, 0); opacity: 0.8;"><title>England → Scotland 
43.0k</title></path><path class="link" d="M0,364.19554223637385 A322.65908732224284 322.65908732224284 0.38372722969567885 0 1 120.79686109992103,387.6607041857423 L447.4684969349001,519.5514441800898 A220.44893560843877 220.44893560843877 0.38372722969567885 0 0 530,535.5834425922458 L530,637.79359430605 A322.65908732224284 322.65908732224284 0.38372722969567885 0 1 409.20313890007895,614.3284323566814 L82.53150306509987,482.43769236233396 A220.44893560843877 220.44893560843877 0.38372722969567885 0 0 0,466.4056939501779 Z" style="fill: red; opacity: 0.8;"><title>Wales → England 
54.6k</title></path><path class="link" d="M0,175.72953736654804 A322.9010178739989 322.9010178739989 0.3852226268691137 0 1 121.33504876427334,199.39340299264177 L447.93768496510313,331.8246418688143 A218.3870639500431 218.3870639500431 0.3852226268691137 0 0 530,347.82918149466195 L530,452.34313541861775 A322.9010178739989 322.9010178739989 0.3852226268691137 0 1 408.6649512357267,428.679269792524 L82.06231503489686,296.24803091635147 A218.3870639500431 218.3870639500431 0.3852226268691137 0 0 0,280.2434912905038 Z" style="fill: rgb(255, 204, 0); opacity: 0.8;"><title>England → Wales 
55.8k</title></path></g><g class="nodes"><g class="node node-style-default" transform="translate(0,80)" style="display: inline;"><title>England</title><text transform="translate(-4,100.12174564525192)" text-anchor="end" dy=".35em" style="opacity: 1;">England</text><line x1="0" x2="0" y1="0" y2="200.24349129050384" style="stroke: rgb(0, 0, 0); stroke-width: 1px;"/><rect x="-5" y="-5" width="10" height="205.24349129050384" style="fill: none; visibility: hidden; pointer-events: all;"/></g><g class="node node-style-default" transform="translate(530,80)" style="display: inline;"><title>Northern Ireland </title><text transform="translate(4,9.758381719423113)" text-anchor="start" dy=".35em" style="opacity: 1;">Northern Ireland </text><line x1="0" x2="0" y1="0" y2="19.516763438846226" style="stroke: rgb(0, 0, 0); stroke-width: 1px;"/><rect x="-5" y="-5" width="10" height="24.516763438846226" style="fill: none; visibility: hidden; pointer-events: all;"/></g><g class="node node-style-default" transform="translate(530,179.51676343884623)" style="display: inline;"><title>Scotland </title><text transform="translate(4,44.15620902790785)" text-anchor="start" dy=".35em" style="opacity: 1;">Scotland </text><line x1="0" x2="0" y1="0" y2="88.3124180558157" style="stroke: rgb(0, 0, 0); stroke-width: 1px;"/><rect x="-5" y="-5" width="10" height="93.3124180558157" style="fill: none; visibility: hidden; pointer-events: all;"/></g><g class="node node-style-default" transform="translate(530,347.82918149466195)" style="display: inline;"><title>Wales </title><text transform="translate(4,53.87713054879191)" text-anchor="start" dy=".35em" style="opacity: 1;">Wales </text><line x1="0" x2="0" y1="0" y2="107.75426109758382" style="stroke: rgb(0, 0, 0); stroke-width: 1px;"/><rect x="-5" y="-5" width="10" height="112.75426109758382" style="fill: none; visibility: hidden; pointer-events: all;"/></g><g class="node node-style-default" transform="translate(0,699.0597490166698)" style="display: inline;"><title>Northern Ireland</title><text transform="translate(-4,10.470125491665106)" text-anchor="end" dy=".35em" style="opacity: 1;">Northern Ireland</text><line x1="0" x2="0" y1="0" y2="20.940250983330213" style="stroke: rgb(0, 0, 0); stroke-width: 1px;"/><rect x="-5" y="-5" width="10" height="25.940250983330213" style="fill: none; visibility: hidden; pointer-events: all;"/></g><g class="node node-style-default" transform="translate(530,535.5834425922458)" style="display: inline;"><title>England </title><text transform="translate(4,92.20827870387713)" text-anchor="start" dy=".35em" style="opacity: 1;">England </text><line x1="0" x2="0" y1="0" y2="184.41655740775425" style="stroke: rgb(0, 0, 0); stroke-width: 1px;"/><rect x="-5" y="-5" width="10" height="189.41655740775425" style="fill: none; visibility: hidden; pointer-events: all;"/></g><g class="node node-style-default" transform="translate(0,546.4056939501779)" style="display: inline;"><title>Scotland</title><text transform="translate(-4,36.327027533245925)" text-anchor="end" dy=".35em" style="opacity: 1;">Scotland</text><line x1="0" x2="0" y1="0" y2="72.65405506649185" style="stroke: rgb(0, 0, 0); stroke-width: 1px;"/><rect x="-5" y="-5" width="10" height="77.65405506649185" style="fill: none; visibility: hidden; pointer-events: all;"/></g><g class="node node-style-default" transform="translate(0,360.2434912905038)" style="display: inline;"><title>Wales</title><text transform="translate(-4,53.08110132983705)" text-anchor="end" dy=".35em" style="opacity: 1;">Wales</text><line x1="0" x2="0" y1="0" y2="106.1622026596741" style="stroke: rgb(0, 0, 0); stroke-width: 1px;"/><rect x="-5" y="-5" width="10" height="111.1622026596741" style="fill: none; visibility: hidden; pointer-events: all;"/></g></g><g class="slice-titles" transform="translate(150,0)"/></g></svg>